/vscmnt/brussel_pixiu_data/_data_brussel/112/vsc11236/PredSimResults/SUBJ09mtu3D/weighted-expIG/worker_03.mot
version=1
nRows=7
nColumns=50
inDegrees=yes
endheader
                time	         pelvis_tilt	         pelvis_list	     pelvis_rotation	           pelvis_tx	           pelvis_ty	           pelvis_tz	       hip_flexion_r	     hip_adduction_r	      hip_rotation_r	        knee_angle_r	       ankle_angle_r	         mtp_angle_r	       hip_flexion_l	     hip_adduction_l	      hip_rotation_l	        knee_angle_l	       ankle_angle_l	         mtp_angle_l	    lumbar_extension	      lumbar_bending	     lumbar_rotation	 ercspn_r/activation	 intobl_r/activation	 extobl_r/activation	    abd_r/activation	    add_r/activation	hamstrings_r/activation	bifemsh_r/activation	glut_max_r/activation	iliopsoas_r/activation	rect_fem_r/activation	  vasti_r/activation	gastroc_r/activation	 soleus_r/activation	tib_ant_r/activation	 ercspn_l/activation	 intobl_l/activation	 extobl_l/activation	    abd_l/activation	    add_l/activation	hamstrings_l/activation	bifemsh_l/activation	glut_max_l/activation	iliopsoas_l/activation	rect_fem_l/activation	  vasti_l/activation	gastroc_l/activation	 soleus_l/activation	tib_ant_l/activation	
          1.28429198	         -7.65504113	         -4.56592856	          7.68423782	          1.48977870	          0.98176701	         -0.01311608	         31.20198854	          1.29439905	         -5.27327404	         -1.80992232	          6.65967004	          0.21391311	        -10.62138343	         -4.76431452	          6.07328090	         -5.75225929	         11.29844855	         26.14193354	         -0.57372878	          2.82287458	         -3.65601567	          0.09427199	          0.13052325	          0.03432670	          0.01214047	          0.06014036	          0.14514561	          0.21421112	          0.00999999	          0.13160389	          0.00999999	          0.00999999	          0.00999999	          0.00999999	          0.26115682	          0.03562779	          0.00999999	          0.00999999	          0.06072434	          0.01000000	          0.02354197	          0.14460371	          0.05729602	          0.49739410	          0.00999999	          0.00999999	          0.35346069	          0.29064486	          0.01708369	
          1.29713490	         -7.75388842	         -4.50382224	          7.69829328	          1.50767829	          0.97953466	         -0.01285807	         31.43968934	          1.39081471	         -5.07845225	         -3.68295176	          6.25365102	          0.21940381	        -10.89358451	         -4.72217078	          5.68030694	         -7.02217482	         10.70878711	         28.11276547	         -0.28976679	          3.14432195	         -3.77021390	          0.07765091	          0.10843645	          0.02827457	          0.00999999	          0.10857064	          0.12551271	          0.17644361	          0.06491055	          0.10840084	          0.00999999	          0.00999999	          0.02319942	          0.01473913	          0.27194304	          0.07817053	          0.00999999	          0.00999999	          0.05001805	          0.03421783	          0.01939129	          0.11910866	          0.04719417	          0.50626933	          0.00999999	          0.00999999	          0.32678380	          0.27427194	          0.01407167	
          1.30997782	         -7.83176607	         -4.43735210	          7.66436465	          1.52604529	          0.97755998	         -0.01252859	         31.48544231	          1.47452371	         -4.86111516	         -5.48317055	          5.79392036	          0.20107479	        -11.05147408	         -4.66491585	          5.26398333	         -8.57795347	          9.96139326	         30.15624366	          0.02101152	          3.47069988	         -3.85462597	          0.06396030	          0.08931804	          0.02328949	          0.05867689	          0.09213132	          0.10983127	          0.14533487	          0.11164383	          0.08928871	          0.00999999	          0.00999999	          0.01910914	          0.01214048	          0.32237367	          0.07438666	          0.00999999	          0.00999999	          0.04119938	          0.02818489	          0.02161123	          0.09810864	          0.03887338	          0.49271659	          0.00999999	          0.01789402	          0.29806942	          0.25424854	          0.01159070	
          1.32282074	         -7.89183001	         -4.36003049	          7.58273518	          1.54456795	          0.97610095	         -0.01210193	         31.35743762	          1.56571289	         -4.67908692	         -6.98107525	          5.17207629	          0.17900999	        -11.00042628	         -4.58121532	          4.83330275	        -10.53319062	          8.99427131	         32.26608308	          0.32514424	          3.79155739	         -3.90529543	          0.07340455	          0.07357040	          0.01918332	          0.11853048	          0.12099632	          0.09108658	          0.11971091	          0.16375054	          0.07354623	          0.00999999	          0.00999999	          0.01574001	          0.00999999	          0.35674701	          0.10726483	          0.00999999	          0.00999999	          0.03393552	          0.03714559	          0.02036767	          0.08081113	          0.03201962	          0.47627694	          0.01000000	          0.01473913	          0.24551686	          0.21097527	          0.00999999	
          1.33566366	         -7.93302228	         -4.27557819	          7.45682900	          1.56298998	          0.97533269	         -0.01158759	         31.13629048	          1.67202553	         -4.52444099	         -8.36565330	          4.68967505	          0.14794265	        -10.65530303	         -4.47092677	          4.39050815	        -13.00843519	          7.80870836	         34.32266883	          0.59952997	          4.11206977	         -3.91996197	          0.07053807	          0.06059922	          0.01580111	          0.15537349	          0.14311036	          0.07502713	          0.09860471	          0.19744842	          0.06057931	          0.00999999	          0.00999999	          0.01296489	          0.00999999	          0.37826640	          0.13720668	          0.00999999	          0.00999999	          0.02795236	          0.05400265	          0.01692323	          0.06656333	          0.02637425	          0.44184976	          0.00999999	          0.01214047	          0.20222984	          0.17377826	          0.00999999	
          1.34850658	         -7.95373439	         -4.18500868	          7.28858142	          1.58112703	          0.97530173	         -0.01100186	         30.86638927	          1.78941290	         -4.38151076	         -9.71362095	          4.41807601	          0.12785015	         -9.96615050	         -4.33576123	          3.93204373	        -16.06628475	          6.41872366	         36.12043760	          0.82897777	          4.43365138	         -3.89683761	          0.07123571	          0.04991498	          0.01301522	          0.17169575	          0.13579249	          0.06422686	          0.08121973	          0.20890269	          0.04989859	          0.00999999	          0.06253526	          0.01067905	          0.00999999	          0.38419395	          0.15636188	          0.00999999	          0.00999999	          0.02302408	          0.07593683	          0.02331407	          0.05482757	          0.02172421	          0.38210727	          0.00999999	          0.00999999	          0.16657474	          0.14313945	          0.00999999	
          1.36134950	         -7.95444644	         -4.07846402	          7.08052125	          1.59888146	          0.97602030	         -0.01038062	         30.50968259	          1.90719405	         -4.23185458	        -10.92141336	          4.25566360	          0.10996611	         -8.93133884	         -4.17203150	          3.44916446	        -19.68365023	          4.88722570	         37.25401255	          1.00740467	          4.74648672	         -3.83554707	          0.05867615	          0.04111448	          0.01072051	          0.16864892	          0.11185095	          0.05503506	          0.06689990	          0.19609864	          0.04110098	          0.00999999	          0.13729344	          0.00999999	          0.00999999	          0.38477048	          0.16503898	          0.00999999	          0.00999999	          0.01896471	          0.08911147	          0.02172421	          0.04516098	          0.01789402	          0.31473802	          0.00999999	          0.00999999	          0.13720598	          0.11790257	          0.00999999	
